<?xml version="1.0" encoding="utf-8"?>
<!-- Generator: Adobe Illustrator 25.4.1, SVG Export Plug-In . SVG Version: 6.00 Build 0)  -->
<svg version="1.1" id="Calque_1" xmlns="http://www.w3.org/2000/svg" xmlns:xlink="http://www.w3.org/1999/xlink" x="0px" y="0px"
	 viewBox="0 0 55 50" style="enable-background:new 0 0 55 50;" xml:space="preserve">
<style type="text/css">
	.st0{fill:#213543;}
	.st1{fill:#B4987C;}
	.st2{fill:#213442;}
	.st3{fill:#213544;}
	.st4{fill:#1F3443;}
	.st5{fill:#223643;}
	.st6{fill:#203544;}
	.st7{fill:#E5E3E2;}
	.st8{fill:#263846;}
	.st9{fill:#2A3743;}
	.st10{fill:none;}
	.st11{fill:#2A3846;}
	.st12{fill:#283B46;}
	.st13{fill:#283945;}
	.st14{fill:#273943;}
	.st15{fill:#263741;}
	.st16{fill:#2C3942;}
	.st17{fill:#2C3A41;}
	.st18{fill:#2C3B42;}
	.st19{fill:#36434D;}
	.st20{fill:#39474F;}
	.st21{fill:#2E4145;}
	.st22{fill:#35464B;}
	.st23{fill:#2B3F41;}
	.st24{fill:#EAE9E7;}
</style>
<g>
	<path class="st0" d="M18.3,26.6c0.4-1.2,0.8-2.3,1.2-3.4c0-0.1,0-0.2,0-0.3c-0.3-0.7-0.5-1.5-0.8-2.2c-0.1-0.3-0.3-0.4-0.5-0.5
		c-0.1,0-0.2-0.1-0.2-0.2c0-0.1,0.1-0.1,0.2-0.1c0.9,0,1.8,0,2.6,0c0.1,0,0.2,0,0.2,0.1c0,0.1,0,0.1-0.1,0.2
		c-0.6,0.2-0.7,0.4-0.5,0.9c0.4,1.1,0.7,2.2,1.1,3.3c0.2,0.7,0.5,1.4,0.7,2.1c0.2-0.5,0.3-0.8,0.4-1.2c0.4-1.3,0.9-2.6,1.2-4
		c0-0.1,0-0.2,0.1-0.3c0.1-0.5,0-0.7-0.5-0.9c-0.1,0-0.2-0.1-0.2-0.2c0-0.2,0.2-0.1,0.2-0.1c0.7,0,1.3,0,2,0c0.1,0,0.2,0,0.2,0.1
		c0,0.1-0.1,0.2-0.2,0.2c-0.4,0-0.6,0.3-0.8,0.7c-0.4,0.9-0.7,1.8-1,2.7c-0.5,1.6-1.1,3.2-1.7,4.7c0,0,0,0.1,0,0.1
		c0,0.1-0.1,0.3-0.3,0.3c-0.2,0-0.2-0.2-0.2-0.3c-0.5-1.5-1.1-3-1.6-4.5c0-0.1-0.1-0.1-0.1-0.3c-0.2,0.5-0.3,1-0.5,1.5
		c-0.4,1.1-0.7,2.2-1.2,3.3c0,0.1,0,0.2-0.2,0.3c-0.2,0-0.2-0.1-0.3-0.2c-0.7-1.9-1.5-3.8-2.2-5.6c-0.2-0.6-0.5-1.2-0.7-1.9
		c-0.2-0.4-0.4-0.7-0.8-0.8c-0.1,0-0.2-0.1-0.2-0.2c0-0.2,0.2-0.1,0.2-0.1c1,0,1.9,0,2.9,0c0.1,0,0.2-0.1,0.2,0.1
		c0,0.1-0.1,0.2-0.2,0.2c-0.5,0.2-0.6,0.3-0.5,0.8C16.9,22.9,17.7,24.7,18.3,26.6z"/>
	<path class="st1" d="M38.5,29.6c-3.4-0.1-6.7-0.1-10,1.2c2.7-0.8,5.5-0.9,8.2-0.9c2.8,0,5.5,0.3,8.2,0.9c-3-0.3-6-0.4-9-0.3
		c-3,0.1-5.9,0.4-8.8,1.3c-0.1,0-0.2,0-0.4,0c-1.9-0.6-3.8-1-5.8-1.1c-1.8-0.1-3.6-0.2-5.4-0.2c-2,0-4.1,0.1-6.1,0.3
		c-0.1,0-0.2,0-0.4,0.1c0.6-0.3,5.7-0.8,8.2-0.9c2.8,0,5.5,0,8.2,0.8c-3.2-1.1-6.5-1.3-9.8-1.2c3.5-0.5,6.9-0.3,10.3,0.9
		c-1-0.8-2.1-1.2-3.3-1.5c0.9,0.1,1.8,0.3,2.7,0.8c0.5,0.3,1,0.6,1.4,1.1c0.2,0.2,0.3,0.2,0.5,0c1-1,2.3-1.6,3.7-1.8
		c0.1,0,0.1,0,0.2,0c-0.5,0.1-1,0.3-1.5,0.5c-0.5,0.2-1,0.5-1.4,0.8C31.5,29.2,35,29.1,38.5,29.6z"/>
	<path class="st2" d="M42.1,28.1c-0.4-0.1-0.6-0.3-0.6-0.8c0-0.3,0-0.7,0-1v-6.8c0-0.2,0-0.3-0.3-0.2c-0.5,0.3-1.1,0.4-1.6,0.6
		c-0.1,0-0.3,0-0.3,0.2c0,0.2,0.2,0.1,0.3,0.2c0.3,0.1,0.5,0.2,0.6,0.6c0.1,0.7,0,1.5,0,2.3c-0.3-0.3-0.7-0.5-1-0.6
		c-1.1-0.3-2.4,0.2-3,1.2c-0.7,1-0.8,2.2-0.5,3.4c0.4,1.4,1.7,2.1,3.1,1.8c0.6-0.1,1-0.4,1.4-0.8c0,0.2,0,0.3,0.1,0.5
		c0,0.3,0.2,0.4,0.5,0.3c0.5-0.2,1-0.3,1.5-0.4c0.1,0,0.2,0,0.3-0.1C42.4,28.1,42.2,28.1,42.1,28.1z M40.2,25.7
		C40.2,25.7,40.2,25.7,40.2,25.7c0,0.4,0,0.8,0,1.2c0.1,0.9-0.9,1.4-1.6,1.3c-0.7-0.1-1.1-0.5-1.4-1.1c-0.5-1.1-0.4-2.3,0.2-3.4
		c0.5-0.9,1.4-1.2,2.2-0.7c0.5,0.3,0.7,0.8,0.7,1.4C40.2,24.9,40.2,25.3,40.2,25.7z"/>
	<path class="st3" d="M15.1,27.1c-0.1,0.2-0.2,0.3-0.3,0.4c-1.9,1.9-5,1.8-6.6,0.1c-1.8-1.9-1.9-5.5,0.6-7.2c1.4-0.9,3.2-0.9,4.4,0
		c0.4,0.3,0.8,0.7,0.8,1.3c0,0.2-0.1,0.4-0.2,0.6c-0.2,0.3-0.5,0.5-0.9,0.5c-0.3,0-0.5-0.2-0.6-0.5c-0.1-0.4,0-0.7,0.3-0.9
		c0.1-0.1,0.3-0.1,0.3-0.3c0-0.2-0.2-0.3-0.3-0.4c-0.6-0.5-1.7-0.6-2.5-0.1c-0.5,0.3-0.9,0.7-1.1,1.2c-0.2,0.3-0.3,0.6-0.3,0.8
		c-0.1,0.2-0.1,0.4-0.1,0.6c0,0,0,0,0,0c-0.1,0.7-0.1,1.4,0.1,2.1c0,0.5,0.2,1,0.5,1.4c1.1,2.3,4,2.3,5.4,0.6
		C14.7,27,14.9,27.1,15.1,27.1z"/>
	<path class="st4" d="M28.6,22.7c-1.9-1-4.6,0.2-4.6,3c0,0.8,0.2,1.6,0.8,2.2c0.8,0.9,1.9,1.2,3,0.9c1.2-0.3,2-1,2.3-2.2
		C30.6,24.9,30,23.4,28.6,22.7z M28.8,26.4c0,0.5-0.1,1-0.4,1.4c-0.5,0.9-1.6,1-2.3,0.2c-0.5-0.6-0.6-1.4-0.6-2.2c0-0.1,0-0.2,0-0.3
		c0-0.6,0.1-1.2,0.3-1.8c0.2-0.6,0.6-0.9,1.2-0.9c0.6,0,1,0.3,1.3,0.8C28.8,24.5,28.9,25.4,28.8,26.4z"/>
	<path class="st5" d="M42.6,27.7c0-0.3,0-0.6,0-0.9c0-0.1,0-0.2,0.1-0.3c0.2,0,0.2,0.1,0.2,0.2c0.1,0.4,0.3,0.7,0.5,1
		c0.4,0.6,1,0.8,1.7,0.7c0.4,0,0.7-0.2,0.8-0.6c0.1-0.4,0-0.8-0.3-1c-0.3-0.2-0.6-0.4-0.9-0.5c-0.4-0.2-0.8-0.4-1.2-0.6
		c-0.6-0.4-1-0.9-1-1.6c0-0.6,0.3-1.1,0.8-1.4c0.7-0.4,1.4-0.4,2.1-0.2c0.3,0.1,0.6,0.1,0.9,0c0.1-0.1,0.2,0,0.2,0.1
		c0,0.6,0,1.1,0.1,1.7c0,0.1,0,0.2-0.1,0.3c-0.2,0-0.2-0.1-0.2-0.2c-0.1-0.4-0.2-0.7-0.5-1c-0.4-0.5-1-0.7-1.6-0.6
		c-0.7,0.2-0.9,1-0.3,1.5c0.2,0.2,0.4,0.3,0.6,0.4c0.5,0.3,1.1,0.5,1.6,0.9c0.5,0.3,0.9,0.7,0.9,1.3c0.1,1.1-0.7,2-2,2.1
		c-0.5,0-1-0.1-1.5-0.2c-0.3-0.1-0.5-0.1-0.8,0.1c-0.2,0.1-0.3,0-0.3-0.2C42.6,28.3,42.6,28,42.6,27.7
		C42.6,27.7,42.6,27.7,42.6,27.7z"/>
	<path class="st6" d="M32.5,23.8c0.3-0.3,0.5-0.7,0.7-0.9c0.5-0.4,1-0.6,1.6-0.5c0.5,0.1,0.7,0.6,0.7,1.1c0,0.4-0.4,0.7-0.8,0.8
		c-0.6,0.1-0.9-0.4-0.7-1c0-0.1,0.1-0.1,0.1-0.2c-0.1-0.1-0.2-0.1-0.3,0c-0.3,0.1-0.5,0.2-0.6,0.4c-0.4,0.4-0.6,1-0.6,1.5
		c0,0.8,0,1.6,0,2.5c0,0.6,0.2,0.8,0.8,0.9c0.1,0,0.2,0,0.2,0.2c0,0.2-0.1,0.1-0.2,0.1c-0.9,0-1.9,0-2.8,0c-0.1,0-0.2,0-0.2-0.1
		c0-0.1,0.1-0.1,0.2-0.2c0.5-0.1,0.7-0.4,0.7-0.8c0.1-1.2,0.1-2.4,0-3.7c0-0.4-0.2-0.7-0.6-0.7c-0.1,0-0.1-0.1-0.1-0.1
		c0-0.1,0-0.1,0.1-0.1c0.6,0,1.2-0.3,1.7-0.5c0.2-0.1,0.2,0,0.2,0.2C32.4,23,32.5,23.4,32.5,23.8z"/>
	<path class="st7" d="M10.2,22.8c0,0.8,0,1.6,0,2.5c0,0.1,0,0.2,0,0.4v0c0,0,0,0,0,0.1v-3C10.2,22.7,10.2,22.7,10.2,22.8z"/>
	<path class="st7" d="M10.2,25.7C10.2,25.7,10.2,25.7,10.2,25.7c0.2,0.1,0.2,0.3,0.2,0.5c0.1,0.1,0.1,0.2,0.2,0.3c0-0.1,0-0.2,0-0.3
		v-3.2c0-0.2,0-0.3,0.1-0.5v4.3C10.4,26.6,10.3,26.2,10.2,25.7z"/>
	<path class="st7" d="M10,26.6c-0.3-0.1-0.4-0.4-0.6-0.6v0c0,0,0,0,0,0c0.2,0,0.2,0.3,0.4,0.3c0.1-1-0.1-2-0.1-3.1
		c0-0.2,0-0.4,0.1-0.5c0,0.9,0,1.7,0,2.6C9.9,25.7,9.9,26.1,10,26.6z"/>
	<path class="st7" d="M11.2,23c0-0.1-0.1-0.2,0.1-0.3c0.1,1.4,0,2.7,0,4c0.2-0.5,0.6-0.9,1.1-1.3c0.5-0.3,1-0.5,1.5-0.7
		c0.1,0,0.2,0,0.3,0c-0.3,0.1-0.6,0.2-0.9,0.3c-0.9,0.4-1.6,1-2,1.9c0,0,0,0-0.1,0.1V23z"/>
	<path class="st7" d="M14.1,25.2c-0.8,0.2-1.5,0.7-2.1,1.4c0.1,0,0.1-0.1,0.2-0.1c0.6-0.3,1.2-0.6,1.9-0.7c0.1,0,0.3-0.1,0.4,0.1
		c-0.9,0.1-1.8,0.5-2.5,0.9c-0.1,0-0.1,0.1-0.2,0.1c0.6-1,1.5-1.5,2.6-1.8C14.3,25.1,14.2,25.2,14.1,25.2z"/>
	<path class="st7" d="M14.4,26.8C14.4,26.8,14.4,26.8,14.4,26.8c0.1,0,0.1,0,0.2,0c0,0,0,0,0,0C14.6,26.8,14.5,26.8,14.4,26.8
		C14.5,26.9,14.5,26.9,14.4,26.8c0,0-0.1,0-0.1,0c0,0-0.1,0-0.1,0c-0.9,0.1-1.7,0.4-2.5,0.6c1-0.9,2.1-1.4,3.5-1.3
		c-0.1,0.1-0.2,0.1-0.3,0.1c-1,0-1.9,0.3-2.7,0.9c-0.1,0.1-0.2,0.1-0.2,0.1c0.4-0.2,0.7-0.2,1.1-0.3c0.4-0.1,0.8-0.2,1.2-0.2
		C14.2,26.7,14.3,26.8,14.4,26.8L14.4,26.8L14.4,26.8C14.4,26.8,14.4,26.8,14.4,26.8z"/>
	<path class="st7" d="M15.2,26.7c-0.2,0-0.5,0-0.8,0c0,0,0,0,0-0.1C14.7,26.6,14.9,26.6,15.2,26.7z"/>
	<path class="st8" d="M14.2,24.7c-0.3,0.1-0.6,0.2-0.9,0.3c-0.9,0.4-1.6,1-2,1.9c0,0,0,0-0.1,0.1V23c0-0.1-0.1-0.2,0.1-0.3
		c0.5,0.5,1,0.9,1.5,1.2c0.3,0.2,0.7,0.3,1,0.3c0.3,0,0.4,0,0.4,0.3C14.2,24.5,14.2,24.6,14.2,24.7z"/>
	<path class="st9" d="M10.8,22.6v4.3c-0.4-0.3-0.5-0.7-0.6-1.2v0h0v-3.1c0-0.1,0-0.2,0-0.4C10.5,22.3,10.6,22.4,10.8,22.6z"/>
	<path class="st10" d="M9.2,22.6c0,0.1-0.1,0.2-0.1,0.3"/>
	<path class="st11" d="M10,26.6c-0.3-0.1-0.4-0.4-0.6-0.6v0c-0.1-0.2-0.1-0.3-0.1-0.5c0-0.9,0-1.8,0-2.8v-0.2c0.2,0,0.4,0.2,0.6,0.3
		c0,0.9,0,1.7,0,2.6C9.9,25.7,9.9,26.1,10,26.6z"/>
	<path class="st12" d="M15.7,26.7c-0.2,0-0.3,0-0.5,0c-0.2,0-0.5,0-0.8,0c0,0,0,0,0,0l0,0h0c0,0,0,0-0.1,0c0,0-0.1,0-0.1,0
		c-0.9,0.1-1.7,0.4-2.5,0.6c1-0.9,2.1-1.4,3.5-1.3C15.3,26.3,15.5,26.5,15.7,26.7z"/>
	<path class="st13" d="M15.4,25.6c0,0.1-0.1,0.1-0.2,0.1c0,0-0.1,0-0.1,0c-0.1,0-0.2,0-0.4,0c-0.1,0-0.2,0-0.2,0
		c-0.9,0.1-1.8,0.5-2.5,0.9c-0.1,0-0.1,0.1-0.2,0.1c0.6-1,1.5-1.5,2.6-1.8C14.8,24.8,15.1,25.2,15.4,25.6z"/>
	<path class="st14" d="M30.3,19.1c0.4-0.1,0.7-0.3,0.8-0.8c0.2,0.4,0.3,0.7,0.8,0.7c-0.2,0.2-0.4,0.2-0.6,0.3
		c-0.1,0.2-0.1,0.4-0.3,0.6C31,19.5,30.8,19.2,30.3,19.1z"/>
	<path class="st15" d="M30.7,21.3c-0.4,0.1-0.6,0.3-0.6,0.7c0,0,0,0.1-0.1,0.1c-0.1,0-0.1,0-0.1-0.1c0-0.4-0.2-0.5-0.6-0.7
		c0.3-0.1,0.5-0.3,0.6-0.6c0-0.1,0.1-0.1,0.2,0C30.1,21.1,30.4,21.2,30.7,21.3z"/>
	<path class="st16" d="M36.3,21.1c-0.2,0.1-0.4,0.2-0.5,0.5c0,0.1-0.1,0.1-0.1,0c-0.1-0.3-0.2-0.4-0.5-0.5c0.3-0.1,0.5-0.3,0.5-0.6
		C35.8,20.8,36,21,36.3,21.1z"/>
	<path class="st17" d="M27.1,21.1c-0.1-0.3-0.3-0.4-0.6-0.5c0.3-0.1,0.5-0.2,0.6-0.5c0.1,0.3,0.3,0.4,0.6,0.5
		C27.4,20.7,27.1,20.7,27.1,21.1z"/>
	<path class="st18" d="M43.7,21.5c-0.1-0.3-0.3-0.4-0.6-0.5c0.3-0.1,0.5-0.2,0.6-0.6c0.1,0.3,0.2,0.5,0.5,0.6
		C43.9,21,43.7,21.2,43.7,21.5z"/>
	<path class="st19" d="M33.1,20.1c0.1,0,0.2,0.1,0.2,0.2c0,0.1-0.1,0.2-0.2,0.2c-0.1,0-0.2-0.1-0.2-0.2C32.9,20.2,33,20.1,33.1,20.1
		z"/>
	<path class="st20" d="M34,18.8c-0.1,0-0.2-0.1-0.2-0.2c0-0.2,0.1-0.2,0.2-0.2c0.1,0,0.2,0.1,0.2,0.2C34.2,18.7,34.1,18.7,34,18.8z"
		/>
	<path class="st21" d="M27.1,18.6c-0.1,0-0.2-0.1-0.2-0.2c0-0.2,0.1-0.2,0.2-0.2c0.1,0,0.2,0.1,0.2,0.2
		C27.3,18.5,27.2,18.6,27.1,18.6z"/>
	<path class="st22" d="M38,20.9c-0.1,0-0.2-0.1-0.2-0.2c0-0.1,0.1-0.2,0.2-0.2c0.1,0,0.2,0.1,0.2,0.2C38.3,20.9,38.2,20.9,38,20.9z"
		/>
	<path class="st23" d="M29,19.8c0,0.2,0,0.3-0.2,0.3c-0.1,0-0.2-0.1-0.2-0.2c0-0.1,0.1-0.2,0.2-0.2C28.9,19.6,29,19.7,29,19.8z"/>
	<path class="st7" d="M14.7,25.7c0.2-0.1,0.5,0.1,0.7-0.1c0.1,0.1,0,0.1-0.1,0.1C15.1,25.7,14.9,25.7,14.7,25.7z"/>
	<path class="st24" d="M10.2,25.6v0.1h0v-3C10.2,23.7,10.2,24.6,10.2,25.6z"/>
	<path class="st24" d="M14.6,26.8c0,0-0.1,0-0.1,0c0,0,0,0,0,0c-0.1,0-0.1,0-0.2,0c0,0-0.1,0-0.1,0c0.1,0,0.1,0,0.2,0h0.1
		c0,0,0,0,0,0C14.5,26.8,14.6,26.8,14.6,26.8L14.6,26.8z"/>
</g>
</svg>
