<?xml version="1.0" encoding="utf-8"?>
<!-- Generator: Adobe Illustrator 25.4.1, SVG Export Plug-In . SVG Version: 6.00 Build 0)  -->
<svg version="1.1" id="Calque_1" xmlns="http://www.w3.org/2000/svg" xmlns:xlink="http://www.w3.org/1999/xlink" x="0px" y="0px"
	 viewBox="0 0 55 50" style="enable-background:new 0 0 55 50;" xml:space="preserve">
<style type="text/css">
	.st0{fill:#FDFDFD;}
	.st1{fill:#958983;}
	.st2{fill:#341B0D;}
	.st3{fill:#331C0E;}
	.st4{fill:#341B0E;}
	.st5{fill:#331C0D;}
	.st6{fill:#331B0D;}
	.st7{fill:#311A0E;}
	.st8{fill:#331B0E;}
	.st9{fill:#291A0E;}
	.st10{fill:#321B0E;}
	.st11{fill:#321B0D;}
	.st12{fill:#341C0F;}
	.st13{fill:#321A0D;}
	.st14{fill:#351D0F;}
	.st15{fill:#AE7B4B;}
	.st16{fill:#E2D6C8;}
	.st17{fill:#321F10;}
	.st18{fill:#726154;}
	.st19{fill:#5B483B;}
	.st20{fill:#B2A495;}
	.st21{fill:#77665A;}
	.st22{fill:#AE9F90;}
	.st23{fill:#5E4B3F;}
	.st24{fill:#87776C;}
	.st25{fill:#A19386;}
	.st26{fill:#96887D;}
	.st27{fill:#A2958B;}
	.st28{fill:#908175;}
	.st29{fill:#69574B;}
	.st30{fill:#6E5C50;}
	.st31{fill:#5B473A;}
	.st32{fill:#7E6D62;}
	.st33{fill:#85756A;}
	.st34{fill:#5E4B3E;}
	.st35{fill:#6B594D;}
	.st36{fill:#8D7E73;}
	.st37{fill:#6D5B4F;}
	.st38{fill:#8E7F74;}
	.st39{fill:#FEFEFE;}
	.st40{fill:#B17F4D;}
	.st41{fill:#AC7C4A;}
	.st42{fill:#AD7C4B;}
	.st43{fill:#B9AB9C;}
</style>
<g>
	<path class="st0" d="M44.5,42.5v-42c0-0.2,0-0.2-0.2-0.2c-11,0-21.9,0-32.9,0c-0.2,0-0.2,0-0.2,0.2c0,10.1,0,20.2,0,30.3v18
		c0,0.1,0,0.2,0.1,0.2h33c0.1,0,0.1,0,0.1-0.1v-5.5c0,0,0,0,0,0c0,0,0,0,0,0c-0.1,0.1-0.1,0.2-0.1,0.4c-0.1,0.6-0.3,1.1-0.6,1.6
		c-0.6,0.8-1.9,0.8-2.5,0c-0.3-0.4-0.4-0.8-0.5-1.2c-0.1-0.7-0.2-1.4-0.1-2.1c0.1-0.6,0.2-1.1,0.5-1.6c0.6-1.1,2.2-1.1,2.9,0
		c0.3,0.5,0.4,1,0.5,1.5C44.3,42.1,44.3,42.3,44.5,42.5C44.4,42.5,44.4,42.6,44.5,42.5L44.5,42.5C44.4,42.6,44.5,42.6,44.5,42.5z
		 M25.2,42.6c0.1,0,0.1-0.1,0.2-0.1c0.1,0,0,0.1,0,0.2v1.9c0,0.3-0.2,0.5-0.4,0.6c-0.2,0.1-0.4,0-0.5-0.2
		C24.2,44.2,24.5,43,25.2,42.6z M16.5,24.8c0.3-0.2,0.7-0.3,1-0.3c0.8,0,1.4,0.3,1.8,0.9c0.4,0.5,0.7,1.1,1.2,1.6
		c0.5,0.5,1,1,1.7,1.2c0.1,0,0.2,0.1,0.2,0c0.1-0.1,0-0.1-0.1-0.2c-0.1-0.1-0.2-0.2-0.3-0.3c-0.5-0.5-1-1-1.2-1.7
		c0.3,0.4,0.7,0.9,1.2,1.2c0.5,0.4,1,0.8,1.5,1.2c0.2,0.2,0.4,0.4,0.5,0.6c0.1,0.2,0.1,0.3-0.2,0.3c-0.3,0-0.6-0.1-0.9-0.2
		c-1.2-0.5-2.1-1.2-2.8-2.2c-0.2-0.3-0.4-0.7-0.7-1c-0.3-0.4-0.7-0.8-1.3-0.9c-0.4-0.1-0.8,0.1-1,0.5C17,25.8,17,26,17,26.2
		c-0.2-0.3-0.4-0.7-0.5-1c-0.1-0.1-0.1-0.3-0.2-0.4C16.4,24.9,16.5,24.8,16.5,24.8z"/>
	<path class="st1" d="M44.4,42.5L44.4,42.5L44.4,42.5c0,0.3,0,0.6,0,0.8l0,0l0,0C44.3,43.1,44.3,42.8,44.4,42.5z"/>
	<path class="st2" d="M39.4,25.7c-0.6,1.2-1.6,1.9-3,1.9c-0.8,0-1.5,0-2.3,0c-0.3,0-0.5,0.1-0.6,0.3c-0.7,1.1-1.6,2.1-2.7,2.9
		c-0.7,0.5-1.5,0.9-2.3,1.2c0,0-0.1,0-0.2,0c0,0-0.1,0-0.1,0c0.2-0.2,0.4-0.3,0.5-0.5c0.8-0.8,1-1.7,0.5-2.8c-0.4-0.8-1-1.4-1.6-2
		c-0.9-0.7-1.8-1.4-2.6-2.1c-0.8-0.7-1.5-1.5-2-2.5c-0.2-0.6-0.4-1.2-0.4-1.8c0-0.3,0-0.3-0.3-0.3c-0.1,0-0.2,0-0.3,0
		c-0.3,0-0.4,0.1-0.3,0.4c0,0.8,0.2,1.6,0.6,2.4c0.5,1.2,1.4,2.2,2.4,3c0.8,0.7,1.6,1.2,2.3,2c0.4,0.4,0.8,0.7,1,1.2
		c0.3,0.6,0.4,1.1,0.1,1.7c-0.3,0.4-0.7,0.7-1.1,0.9c-0.8,0.3-1.5,0.3-2.3,0.2c-1.6-0.2-3-1-4.2-1.9c-1.3-0.9-2.5-2.1-3.3-3.5
		C17,26.5,17,26.4,17,26.2c0-0.2,0.1-0.4,0.2-0.6c0.2-0.4,0.6-0.6,1-0.5c0.6,0.1,1,0.4,1.3,0.9c0.2,0.3,0.4,0.7,0.7,1
		c0.7,1,1.6,1.8,2.8,2.2c0.3,0.1,0.6,0.2,0.9,0.2c0.3,0,0.3-0.1,0.2-0.3c-0.1-0.2-0.3-0.4-0.5-0.6c-0.5-0.4-1-0.8-1.5-1.2
		c-0.5-0.4-0.8-0.8-1.2-1.2c0.3,0.6,0.7,1.2,1.2,1.7c0.1,0.1,0.2,0.2,0.3,0.3c0,0,0.2,0.1,0.1,0.2c0,0.1-0.2,0-0.2,0
		c-0.6-0.3-1.2-0.7-1.7-1.2c-0.4-0.5-0.7-1.1-1.2-1.6c-0.5-0.6-1.1-0.9-1.8-0.9c-0.4,0-0.7,0.1-1,0.3c-0.1,0-0.1,0.1-0.2,0.1
		c-0.4-1.1-0.5-2.3-0.6-3.5c0-0.3,0-0.5,0-0.8c0-0.1,0-0.2,0.2-0.2c0.5,0,1,0,1.5,0c0.2,0,0.2,0.1,0.2,0.2v0.9
		c0,0.3,0.1,0.4,0.4,0.4c0.2,0,0.4,0,0.5,0c0.2,0,0.2-0.1,0.3-0.3c0-0.1,0-0.2,0-0.3v-5.7c0-0.4-0.1-0.7-0.2-1
		c-0.2-0.3-0.3-0.6-0.5-0.9c-0.1-0.2-0.1-0.2,0.1-0.3c0.5-0.1,1-0.1,1.5-0.2c0.5-0.1,0.9-0.1,1.4-0.2c-0.4,0-0.7-0.1-1.1-0.1
		c-0.7-0.1-1.4-0.2-2.1-0.3c-0.3-0.1-0.4-0.2-0.4-0.5c0-0.8,0-1.7,0-2.5c0-0.4,0.1-0.4,0.4-0.4c0.6,0,1.1,0,1.7,0
		c0.3,0,0.3,0,0.3,0.3v1c0,0.3,0,0.3,0.3,0.3c0.2,0,0.5,0,0.7,0c0.3,0,0.4-0.1,0.4-0.4c0-0.3-0.1-0.6,0-1c0-0.2,0.1-0.3,0.3-0.3
		c0.4,0,0.9,0,1.3,0c0.2,0,0.3,0,0.5,0c0.3,0,0.3,0,0.3,0.3v1c0,0.3,0,0.3,0.3,0.3c0.2,0,0.5,0,0.7,0c0.2,0,0.3,0,0.3-0.3
		c0-0.4,0-0.8,0-1.1c0-0.2,0.1-0.3,0.2-0.2h2c0.2,0,0.2,0.1,0.2,0.2c0,0.9,0,1.9,0,2.8c0,0.2-0.1,0.3-0.3,0.4
		c-0.8,0.2-1.5,0.3-2.3,0.4c-0.3,0-0.7,0.1-1,0.1c0,0.1,0.1,0,0.1,0.1c1,0.1,2,0.2,3,0.4c0.2,0,0.2,0.1,0.1,0.3
		c-0.4,0.6-0.6,1.2-0.7,1.9c-0.1,0.6,0,1.1,0,1.6c0,0.9,0,1.7,0,2.6V20c0,0.2,0.1,0.3,0.3,0.3h5.7c0.9,0,1.7,0,2.5,0
		c0.4,0,0.5,0.1,0.5,0.5c0,0.5,0,0.5,0.5,0.5c0.4,0,0.8,0,1.2,0C39.4,21.7,40.3,24,39.4,25.7z"/>
	<path class="st3" d="M15.8,11.3c0.3-0.3,0.5-0.7,0.8-1c0.1-0.1,0.1-0.2,0.3-0.1c0.1,0.1,0.2,0.2,0.1,0.3c-0.1,0.1-0.2,0.2-0.2,0.3
		c-1.2,1.5-1.9,3.2-2.4,5c-0.3,1.1-0.5,2.3-0.5,3.4c0,2.4,0.6,4.6,1.7,6.7c1.2,2.1,2.7,3.9,4.7,5.3c1.7,1.1,3.5,1.8,5.5,2.1
		c4,0.6,7.5-0.5,10.6-2.9c2.8-2.1,4.5-5,5.2-8.4c0.9-4.6-0.2-8.6-3.2-12.1c-1.7-2-3.7-3.6-6.2-4.5C31,5,29.9,4.8,28.7,4.6
		c-0.1,0-0.1,0-0.2,0c-0.2,0-0.2-0.1-0.2-0.2c0-0.2,0.1-0.1,0.2-0.1c0.5,0,1,0.2,1.5,0.2c0.8,0.1,1.6,0.4,2.3,0.7
		C34.3,5.9,36,7,37.5,8.4c2.2,2.2,3.7,4.8,4.4,7.8c0.6,2.6,0.4,5.2-0.5,7.7c-1.7,4.9-5.1,8.1-10.1,9.6c-1.7,0.5-3.4,0.6-5.1,0.4
		c-0.4,0-0.8-0.1-1.2-0.2c-0.4,0-0.8-0.1-1.2-0.3c-0.2-0.1-0.4-0.1-0.6-0.2c-0.2,0-0.4-0.1-0.5-0.2c-0.1-0.1,0,0.1,0,0
		c-0.3-0.1-0.5-0.2-0.8-0.3c-0.3-0.2-0.7-0.3-1-0.5c0,0,0,0,0,0c0,0,0.1,0,0.1,0c0,0-0.1,0-0.1,0c0,0,0,0,0,0
		c-0.2-0.1-0.4-0.3-0.6-0.4c-1-0.7-2-1.5-2.8-2.4c-1.1-1.2-2-2.4-2.7-3.9c-0.3-0.7-0.6-1.5-0.8-2.3c-0.2-0.9-0.4-1.8-0.5-2.7
		c-0.1-0.8,0-1.6,0-2.4c0.1-0.9,0.2-1.7,0.4-2.6c0.2-0.8,0.5-1.6,0.9-2.4c0.3-0.6,0.6-1.1,0.9-1.7C15.7,11.4,15.7,11.3,15.8,11.3z"
		/>
	<path class="st4" d="M21.3,40.9c0,1.7,0.2,3.1,0.9,4.5c0.5,1,1.1,1.9,2.1,2.4c1.4,0.8,3.5,0.9,4.9-0.5c0.1-0.1,0.1-0.1,0.2-0.1
		c0.1,0,0.2,0.1,0.3,0.2c0.1,0.1-0.1,0.1-0.1,0.2c-0.4,0.4-0.9,0.7-1.4,0.9C26.4,49.2,24.6,49,23,48c-1.6-1-2.5-2.4-2.9-4.1
		c-0.5-1.8-0.5-3.7,0.2-5.5c0.2-0.6,0.5-1.2,1.1-1.6c0.7-0.5,1.4-0.7,2.2-0.4c0.3,0.1,0.5,0.2,0.7-0.1c0.2-0.2,0.5-0.2,0.8-0.2
		c0.1,0,0.1,0.1,0.1,0.2c0,0.1,0,0.2-0.1,0.2c-0.2,0-0.3,0.1-0.4,0.2c-0.2,0.2-0.2,0.4-0.1,0.6c0.2,0.6,0,1.2-0.5,1.5
		c-0.2,0.1-0.5,0.2-0.8,0.1c-0.4-0.1-0.6-0.6-0.5-1c0.1-0.3,0.3-0.4,0.6-0.3c0.2,0.1,0.3,0,0.4-0.2c0.1-0.4-0.3-0.7-0.7-0.7
		c-0.4,0-0.6,0.2-0.8,0.5c-0.4,0.5-0.5,1.1-0.6,1.7C21.3,39.8,21.3,40.4,21.3,40.9z"/>
	<path class="st5" d="M14.5,36.2c0.7,0,1.3,0,2,0c0.2,0,0.2,0.1,0.2,0.2c0,0.7,0,1.3,0,2c0,0.1,0,0.2-0.2,0.3
		c-0.2,0-0.2-0.1-0.2-0.2c-0.1-0.4-0.2-0.7-0.3-1.1c-0.2-0.4-0.4-0.6-0.9-0.6c-0.2,0-0.4,0-0.5,0c-0.2,0-0.3,0.1-0.3,0.3
		c0,0.1,0,0.2,0,0.3c0,1,0,2,0,2.9c0,0.3,0.1,0.3,0.4,0.3c0.5,0,0.7-0.2,0.8-0.8c0-0.1,0-0.3,0-0.4c0-0.1,0.1-0.2,0.2-0.2
		c0.1,0,0.2,0.1,0.2,0.2c0,0.8,0,1.7,0,2.5c0,0.2,0,0.3,0,0.5c0,0.1-0.1,0.2-0.2,0.2c-0.1,0-0.2,0-0.3-0.2c0-0.2,0-0.4-0.1-0.7
		c-0.1-0.4-0.5-0.7-0.9-0.6c-0.2,0-0.2,0.1-0.2,0.2c0,1,0,2.1,0,3.1c0,0.3,0,0.6,0,0.9c0,0.2,0.1,0.3,0.3,0.3c0.2,0,0.4,0.1,0.6,0
		c0.5-0.1,0.8-0.4,1-0.8c0.1-0.4,0.3-0.8,0.4-1.3c0-0.1,0.1-0.2,0.3-0.2c0.1,0,0.2,0.1,0.2,0.2c0,0.6,0,1.1,0,1.7c0,0.2,0,0.4,0,0.7
		c0,0.2-0.1,0.3-0.3,0.3c-1-0.1-1.9-0.1-2.9-0.1c-0.4,0-0.9,0-1.3,0c-0.1,0-0.2,0-0.2-0.1c0-0.1-0.1-0.3,0.1-0.3
		c0.4-0.1,0.5-0.4,0.4-0.8c0-1.2,0-2.4,0-3.6c0-0.3,0-0.3-0.3-0.2c-0.8,0.4-1.1,1.5-0.5,2.2c0.1,0.1,0.1,0.2,0,0.3
		c-0.1,0.1-0.2,0.1-0.3,0c-0.5-0.5-0.7-1.1-0.5-1.9c0.2-0.6,0.6-1.1,1.2-1.2c0.2,0,0.3-0.1,0.3-0.4c0-1,0-2,0-3
		c0-0.4-0.1-0.5-0.4-0.6c-0.2-0.1-0.1-0.2-0.1-0.3c0-0.1,0.1-0.1,0.2-0.1c0.4,0,0.8,0,1.3,0C14,36.2,14.2,36.2,14.5,36.2
		C14.5,36.2,14.5,36.2,14.5,36.2z"/>
	<path class="st6" d="M29.2,1.3c-0.3,0.3-0.4,0.6-0.5,0.9c-0.2,0.7-0.7,1.3-1.5,1.4c-0.5,0.1-1.1,0-1.6-0.3
		c-0.4-0.2-0.7-0.4-1.1-0.4c-0.6-0.1-1.2,0.1-1.6,0.6c0,0-0.1,0.1-0.1,0.2c0,0.4,0,0.8,0,1.2c0.1,0.5,0.3,1,0.7,1.3
		C24,6.4,24.2,6.7,24,7.2c-0.1,0.5-0.5,0.7-1,0.9c-0.3,0.1-0.6,0-0.9,0c-0.5-0.2-0.8-0.6-0.9-1.1c0-0.3,0.1-0.5,0.3-0.7
		c0.5-0.4,0.8-0.9,0.9-1.6c0-0.1,0-0.2,0-0.3c0-1.2,0-2.3,0-3.5c0-0.3,0.1-0.4,0.2-0.4c0.2,0,0.3,0.1,0.3,0.4c0,0.3,0,0.3,0.3,0.2
		c0.9-0.5,1.8-0.4,2.7,0.1c0.3,0.1,0.5,0.3,0.8,0.4c0.6,0.3,1.2,0.3,1.8-0.1C28.7,1.3,28.9,1.2,29.2,1.3z"/>
	<path class="st7" d="M44.4,42.5c0,0.3,0,0.6,0,0.8c-0.1,0.7-0.3,1.4-0.7,2c-0.6,0.8-1.9,0.8-2.6,0c-0.4-0.5-0.5-1-0.6-1.6
		c-0.1-0.9-0.1-1.8,0.1-2.6c0.1-0.5,0.4-1,0.8-1.3c0.7-0.6,1.8-0.4,2.4,0.3c0.4,0.5,0.5,1,0.6,1.6C44.4,42,44.4,42.3,44.4,42.5z"/>
	<path class="st8" d="M27,45.2c-0.2,0-0.2-0.1-0.2-0.3c0-0.3,0-0.5,0-0.8c0-1,0-2,0-3c0-1-0.7-1.6-1.7-1.6c-0.8,0.1-1.4,0.6-1.5,1.2
		c-0.2,0.6,0.2,1.1,0.8,1c0.3-0.1,0.5-0.3,0.5-0.5c0-0.3-0.1-0.5-0.4-0.6c-0.2-0.1-0.2-0.1-0.1-0.3c0.1-0.2,0.4-0.3,0.6-0.2
		c0.2,0,0.4,0.2,0.4,0.4c0.2,0.5,0.1,1,0.1,1.5c0,0.1-0.1,0.1-0.1,0.1c-0.2,0.1-0.3,0.1-0.5,0.2c-0.4,0.2-0.8,0.3-1.2,0.7
		c-0.6,0.7-0.7,1.5-0.4,2.4c0.2,0.5,0.7,0.8,1.3,0.6c0.4-0.1,0.6-0.3,0.9-0.6c0.1,0.1,0.2,0.2,0.2,0.3c0.5,0.5,1,0.4,1.4-0.1
		C27.2,45.3,27.2,45.2,27,45.2z M25.5,42.7v1.9c0,0.3-0.2,0.5-0.4,0.6c-0.2,0.1-0.4,0-0.5-0.2c-0.4-0.8,0-1.9,0.7-2.4
		c0.1,0,0.1-0.1,0.2-0.1C25.5,42.5,25.5,42.6,25.5,42.7z"/>
	<path class="st9" d="M16.3,9.8c-0.1,0.2-0.2,0.3-0.3,0.5c-1.6,2.1-2.5,4.5-2.8,7.1c-0.3,2.3-0.1,4.5,0.6,6.7c0.7,2.2,2,4,3.6,5.7
		c1.2,1.2,2.5,2.2,4,3c1.4,0.7,2.9,1.2,4.5,1.4c1.6,0.2,3.2,0.2,4.8-0.2c2-0.4,3.7-1.2,5.4-2.3c2.2-1.6,4-3.6,5.2-6.1
		c0.8-1.8,1.3-3.8,1.3-5.8c0.2-4.2-1.3-7.8-4.1-11c-2.4-2.6-5.3-4.3-8.8-4.9c0,0-0.1,0-0.1,0c-0.1,0-0.1,0-0.1-0.1
		c0-0.1,0.1,0,0.1,0C30,3.9,30.5,4,31,4.1c2,0.6,3.8,1.5,5.4,2.7c3,2.2,4.9,5.2,5.8,8.8c0.3,1.3,0.5,2.6,0.5,3.9
		c0,3.4-1.1,6.5-3.2,9.2c-1.9,2.4-4.3,4.1-7.2,5.1c-1.3,0.4-2.6,0.7-3.9,0.7c-2.3,0.1-4.5-0.3-6.6-1.3c-3.2-1.5-5.5-3.9-7.2-7
		c-1.2-2.3-1.7-4.7-1.6-7.3c0.1-3.3,1.1-6.3,3.2-8.9C16.1,9.9,16.2,9.8,16.3,9.8z"/>
	<path class="st10" d="M39.7,40.7c0,1.3,0,2.6,0,3.9c0,0.1,0,0.2,0,0.3c0,0.3,0.2,0.3,0.4,0.3c0.1,0,0.1-0.1,0.2,0
		c0,0.1,0.1,0.2,0,0.2c-0.3,0.2-0.5,0.4-0.9,0.5c-0.6,0.1-0.9-0.2-0.9-0.8c0-0.7,0-1.3,0-2c0-1.7,0-3.5,0-5.2c0-0.2-0.1-0.3-0.3-0.3
		c-0.1,0-0.2,0.1-0.2-0.1c0-0.1,0-0.2,0.1-0.3c0.1,0,0.1-0.1,0.2-0.1c0.3-0.2,0.7-0.3,1-0.6c0.1-0.1,0.2-0.1,0.3-0.1
		c0.1,0,0.1,0.1,0.1,0.2c0,1.3,0,2.5,0,3.8C39.7,40.5,39.7,40.6,39.7,40.7C39.7,40.7,39.7,40.7,39.7,40.7z"/>
	<path class="st4" d="M18.9,40.8c0,0.7,0,1.5,0,2.2c0,0.6,0,1.2,0,1.8c0,0.3,0.1,0.4,0.4,0.4c0.1,0,0.2-0.1,0.3,0.1
		c0,0.1,0,0.3-0.1,0.3c-0.3,0.2-0.6,0.4-1,0.3c-0.3,0-0.6-0.2-0.6-0.6c0-0.2,0-0.4,0-0.6c0-2.2,0-4.4,0-6.6c0-0.1,0-0.2,0-0.3
		c0-0.2-0.1-0.3-0.3-0.2c-0.1,0-0.2,0-0.2-0.1c0-0.1,0-0.2,0.1-0.3c0.2-0.1,0.4-0.2,0.5-0.3c0.2-0.1,0.4-0.2,0.6-0.4
		c0-0.1,0.1-0.1,0.2-0.1c0.2,0,0.3,0,0.3,0.2c0,1.3,0,2.6,0,4C18.9,40.7,18.9,40.7,18.9,40.8C18.9,40.8,18.9,40.8,18.9,40.8z"/>
	<path class="st3" d="M36.2,41.6c0-1.2,0-2.4,0-3.5c0-0.3,0-0.4-0.4-0.3c-0.1,0-0.2-0.1-0.1-0.2c0-0.1,0.1-0.1,0.2-0.2
		c0.2-0.1,0.4-0.2,0.5-0.3c0.2-0.1,0.4-0.2,0.6-0.4c0.1-0.1,0.2-0.1,0.3-0.1c0.1,0,0.1,0.1,0.1,0.2c0,1.3,0,2.6,0,3.9
		c0,1.3,0,2.6,0,3.9c0,0,0,0.1,0,0.1c0,0.5,0,0.5,0.5,0.5c0.1,0,0.1,0,0.1,0.1c0,0.1,0.1,0.2,0,0.2c-0.3,0.3-0.7,0.6-1.2,0.5
		c-0.4,0-0.6-0.3-0.6-0.7c0-0.1,0-0.3,0-0.4C36.2,43.7,36.2,42.6,36.2,41.6z"/>
	<path class="st8" d="M27.6,44.9c0-0.3,0-0.5,0-0.8c0-0.1,0-0.2,0.2-0.2c0.2,0,0.3,0.1,0.3,0.2c0,0.4,0.1,0.8,0.4,1.1
		c0.1,0.2,0.3,0.4,0.6,0.3c0.3,0,0.4-0.2,0.5-0.5c0-0.1,0.1-0.3,0-0.4c-0.1-0.5-0.3-0.8-0.7-1.2c-0.3-0.3-0.6-0.5-0.8-0.8
		c-0.5-0.6-0.7-1.3-0.5-2c0.2-0.8,0.9-1.2,1.8-1c0.2,0.1,0.5,0.1,0.7-0.1c0.1-0.1,0.2,0,0.2,0.2c0,0.4,0,0.8,0,1.2
		c0,0.1,0,0.3,0,0.4c0,0.1,0,0.2-0.2,0.2c-0.1,0-0.2,0-0.2-0.2c0-0.3-0.1-0.6-0.2-0.9c0-0.1-0.1-0.2-0.2-0.3
		C29.2,40,29,40,28.8,40.1c-0.2,0.1-0.3,0.3-0.3,0.5c0,0.4,0.1,0.7,0.4,1c0.4,0.4,0.7,0.7,1.1,1.1c0.6,0.6,0.8,1.3,0.6,2
		c-0.2,1-1.1,1.5-2.1,1.2c-0.1,0-0.2-0.1-0.2-0.1c-0.1,0-0.2,0-0.3,0.1c-0.1,0.1-0.1,0.1-0.2,0.1c-0.1,0-0.1-0.1-0.1-0.2
		C27.6,45.4,27.6,45.2,27.6,44.9z"/>
	<path class="st11" d="M29.2,18.6c-0.1,0-0.2-0.1-0.3-0.2c-0.8-1.1-0.9-2.2-0.4-3.4c0.2-0.4,0.4-0.7,0.7-1.1c0.3-0.5,0.6-1,0.7-1.6
		c0.1-0.6,0.1-1.1-0.2-1.6c-0.2-0.5-0.5-0.9-0.7-1.3c-0.2-0.4-0.4-0.8-0.4-1.2c-0.1-0.6,0.1-1.1,0.5-1.6c0.1-0.1,0.1-0.2,0.2-0.2
		c0,0.1,0,0.1-0.1,0.2c-0.3,0.6-0.2,1.2,0.1,1.8c0.2,0.5,0.6,0.9,0.9,1.3c0.4,0.5,0.7,1,0.8,1.6c0.2,0.8,0,1.6-0.5,2.3
		c-0.4,0.6-0.8,1.1-1.2,1.6c-0.3,0.4-0.6,0.8-0.7,1.3c-0.1,0.6,0,1.2,0.4,1.8C29.1,18.4,29.2,18.5,29.2,18.6
		C29.2,18.6,29.2,18.6,29.2,18.6z"/>
	<path class="st12" d="M32.5,38.7c0,0.2,0,0.4,0,0.6c0,0.2,0.1,0.3,0.3,0.3c0.1,0,0.2,0,0.3,0c0.2,0,0.3,0,0.3,0.2
		c0,0.2,0,0.3-0.3,0.3c-0.5,0-0.5,0-0.5,0.5c0,1.1,0,2.2,0,3.3c0,0.3,0,0.5,0,0.8c0,0.3,0.3,0.5,0.6,0.3c0.1,0,0.1-0.1,0.2,0
		c0.1,0.1,0.1,0.2,0,0.3c-0.4,0.3-0.7,0.6-1.3,0.5c-0.4-0.1-0.7-0.4-0.8-0.8c-0.1-0.4,0-0.9,0-1.3c0-1.1,0-2.2,0-3.3
		c0-0.3-0.1-0.3-0.3-0.3c-0.1,0-0.2,0-0.2-0.1c0-0.1-0.1-0.3,0.1-0.4c0,0,0.1,0,0.1-0.1c0.8-0.2,1-0.9,1.2-1.5
		c0-0.2,0.1-0.3,0.3-0.3c0.1,0,0.2,0,0.2,0.2C32.5,38.3,32.5,38.5,32.5,38.7z"/>
	<path class="st13" d="M31.9,6.5c0,0.3-0.1,0.5-0.2,0.7c-0.1,0.6,0.1,1.2,0.4,1.7c0.3,0.4,0.6,0.8,0.8,1.2c0.4,0.6,0.7,1.2,0.7,1.9
		c0,0.9-0.4,1.7-1,2.4c-0.4,0.5-0.9,0.9-1.3,1.4c-0.4,0.4-0.6,0.9-0.5,1.5c0,0.4,0.2,0.8,0.4,1.2c0,0.1,0.1,0.1,0.1,0.3
		c-0.2-0.1-0.3-0.2-0.4-0.3c-0.7-0.8-0.8-2-0.2-3c0.3-0.5,0.6-0.9,0.9-1.3c0.2-0.3,0.4-0.6,0.6-0.9c0.4-0.9,0.4-1.7,0-2.6
		c-0.2-0.4-0.5-0.8-0.7-1.2C31,8.4,31.1,7.3,31.9,6.5C31.9,6.5,31.9,6.5,31.9,6.5z"/>
	<path class="st3" d="M34.3,7.3c-0.3,0.8-0.1,1.5,0.4,2.1c0.3,0.4,0.6,0.8,0.8,1.2c0.9,1.4,0.7,2.8-0.4,4c-0.5,0.5-1.1,1-1.6,1.5
		c-0.5,0.5-0.8,1.1-0.8,1.8c0,0.4,0.1,0.7,0.3,1c-0.5-0.5-0.7-1.1-0.6-1.9c0.1-0.7,0.4-1.3,0.9-1.8c0.4-0.5,0.8-0.9,1.2-1.5
		c0.6-1,0.7-2.1,0-3.1c-0.3-0.4-0.5-0.9-0.7-1.4C33.6,8.5,33.7,7.8,34.3,7.3z"/>
	<path class="st14" d="M35.1,42.4c0,0.8,0,1.6,0,2.4c0,0.3,0.1,0.3,0.3,0.4c0.1,0,0.2,0,0.2,0.1c0,0.1,0,0.2-0.1,0.3
		c-0.1,0.1-0.3,0.2-0.4,0.3c-0.7,0.3-1.2,0-1.2-0.8c0-1.1,0-2.3,0-3.4c0-0.2,0-0.4,0-0.6c0-0.2-0.1-0.3-0.3-0.3
		c-0.1,0-0.1,0-0.2-0.1c0-0.1,0-0.2,0.1-0.2c0.5-0.2,0.9-0.5,1.3-0.8c0.1-0.1,0.3,0,0.3,0.1c0,0.1,0,0.3,0,0.4
		C35.1,40.9,35.1,41.6,35.1,42.4z"/>
	<path class="st15" d="M22.4,28.2c-0.6-0.7-1.3-1.3-1.6-2.1c0.3,0.6,0.7,1.2,1.2,1.7c0.1,0.1,0.2,0.2,0.3,0.3
		C22.4,28,22.5,28.1,22.4,28.2c0,0.1-0.1,0-0.2,0c-0.6-0.3-1.2-0.7-1.7-1.2c-0.4-0.5-0.7-1.1-1.2-1.6c-0.5-0.6-1.1-0.9-1.8-0.9
		c-0.4,0-0.7,0.1-1,0.3c-0.1,0-0.1,0.1-0.2,0.1c0.3-0.1,0.6-0.3,0.9-0.4c0.8-0.2,1.5,0.1,2.1,0.7c0.4,0.4,0.6,0.9,1,1.3
		c0.5,0.7,1.1,1.2,1.9,1.6C22.2,28.1,22.3,28.1,22.4,28.2z"/>
	<path class="st15" d="M24.1,29.4c-0.1,0.1-0.2,0.1-0.3,0.1c-0.3,0-0.6-0.1-0.9-0.2c-1.3-0.5-2.3-1.4-3-2.6c-0.3-0.5-0.6-1-1.1-1.3
		c-0.2-0.1-0.4-0.2-0.7-0.2c-0.5-0.1-0.9,0.2-1,0.7c0,0.1,0,0.3-0.1,0.4c0-0.2,0.1-0.4,0.2-0.6c0.2-0.4,0.6-0.6,1-0.5
		c0.6,0.1,1,0.4,1.3,0.9c0.2,0.3,0.4,0.7,0.7,1c0.7,1,1.6,1.8,2.8,2.2c0.3,0.1,0.6,0.2,0.9,0.2c0.3,0,0.3-0.1,0.2-0.3
		c-0.1-0.2-0.3-0.4-0.5-0.6c-0.5-0.4-1-0.8-1.5-1.2c-0.5-0.4-0.8-0.8-1.2-1.2c0,0,0-0.1-0.1-0.1c0.1,0.2,0.3,0.3,0.4,0.5
		c0.5,0.7,1.2,1.2,1.9,1.7c0.3,0.3,0.7,0.5,0.9,0.9C24.1,29.1,24.2,29.2,24.1,29.4z"/>
	<path class="st16" d="M15.8,11.3c0,0.1-0.1,0.1-0.1,0.2c-0.9,1.4-1.6,3-1.9,4.7c-0.6,3.2-0.4,6.3,0.9,9.2c1.2,2.6,3.1,4.6,5.4,6.3
		c0.1,0,0.1,0.1,0.2,0.1c0,0,0,0,0,0.1c-0.4-0.2-0.8-0.6-1.2-0.9c-0.2-0.1-0.4-0.3-0.5-0.4l0,0c-0.1-0.1-0.2-0.2-0.3-0.2
		c0,0-0.1,0-0.1-0.1c-0.2-0.3-0.5-0.6-0.8-0.8c-0.1,0-0.1-0.1-0.1-0.2c0-0.1-0.1-0.2-0.2-0.2c-0.2-0.3-0.5-0.6-0.7-1
		c-0.1-0.1-0.2-0.3-0.3-0.4c0-0.1-0.1-0.2-0.1-0.2c-0.1-0.1-0.1-0.2-0.2-0.3l0,0c-0.1-0.1-0.2-0.3-0.2-0.4l0,0
		c-0.1-0.1-0.1-0.2-0.2-0.3l0,0c-0.2-0.4-0.4-0.7-0.5-1.1c0,0,0-0.1,0-0.1c-0.1-0.2-0.2-0.4-0.3-0.6c-0.1-0.1-0.1-0.3-0.2-0.4l0,0
		c-0.1-0.2-0.1-0.5-0.3-0.8c0-0.1,0-0.1,0-0.2c-0.1-0.2-0.1-0.4-0.2-0.6l0,0c0-0.2-0.1-0.4-0.1-0.6c0-0.1,0-0.1,0-0.2
		c0-0.2,0-0.3-0.1-0.5c0,0,0-0.1,0-0.1c0.1-0.1,0-0.2,0-0.3c0-0.1,0-0.2,0-0.3c0,0,0,0,0,0c0,0,0,0,0,0c-0.1,0,0-0.1,0-0.2
		c0-0.3,0-0.5,0-0.8c0,0,0,0.1,0,0.1c-0.1-0.1-0.1-0.3,0-0.4c0-0.2,0-0.4,0-0.5c0-0.8,0.1-1.7,0.3-2.5c0.3-1.3,0.7-2.5,1.3-3.6
		c0.2-0.3,0.4-0.7,0.6-1C15.6,11.4,15.6,11.3,15.8,11.3z"/>
	<path class="st3" d="M35.2,38.1c0,0.4-0.3,0.7-0.7,0.7c-0.4,0-0.8-0.3-0.8-0.7c0-0.4,0.3-0.7,0.7-0.8
		C34.8,37.3,35.1,37.6,35.2,38.1z"/>
	<path class="st17" d="M41.8,38.8c0.5-0.3,0.7-0.8,0.9-1.3c0.1-0.2,0.4-0.3,0.6-0.2c0,0,0,0.1,0,0.1c-0.2,0.6-0.5,1.1-1.2,1.3
		C42,38.8,42,38.8,41.8,38.8z"/>
	<path class="st18" d="M25,33.7c1.1,0.2,2.3,0.3,3.4,0.3c2-0.1,3.9-0.6,5.7-1.5c0.2-0.1,0.4-0.2,0.6-0.3c0,0,0,0,0,0
		c-0.3,0.2-0.6,0.3-0.8,0.5c-1.7,0.9-3.5,1.3-5.4,1.4C27.3,34.2,26.2,34.1,25,33.7C25,33.8,24.9,33.8,25,33.7
		C24.9,33.8,25,33.8,25,33.7z"/>
	<path class="st19" d="M18.5,30.5c0.1,0,0.1,0.1,0.2,0.1c0.5,0.4,1.1,0.8,1.6,1.2c0.2,0.1,0.4,0.3,0.6,0.4l0,0c0,0,0.1,0,0,0.1
		c0,0,0,0,0,0c-0.4-0.2-0.7-0.4-1.1-0.6c-0.4-0.3-0.8-0.6-1.2-0.9C18.6,30.7,18.5,30.6,18.5,30.5z"/>
	<path class="st20" d="M23.2,33.2c0.6,0.2,1.2,0.3,1.8,0.5c0,0,0,0-0.1,0c-0.1,0.1-0.2,0-0.3,0c-0.1,0-0.2-0.1-0.4-0.1
		c-0.2,0-0.3-0.1-0.5-0.2l0,0C23.6,33.4,23.4,33.4,23.2,33.2C23.3,33.3,23.2,33.3,23.2,33.2C23.2,33.3,23.2,33.2,23.2,33.2z"/>
	<path class="st21" d="M14.5,25.2c0.2,0.4,0.4,0.8,0.6,1.2c-0.2-0.3-0.4-0.7-0.6-1.1C14.5,25.3,14.5,25.2,14.5,25.2z"/>
	<path class="st19" d="M17.3,29.4C17.3,29.4,17.3,29.4,17.3,29.4c0.3,0.2,0.6,0.5,0.8,0.7c0,0,0,0,0,0c0,0,0,0,0,0
		C17.8,30,17.5,29.7,17.3,29.4z"/>
	<path class="st22" d="M23.2,33.2C23.2,33.2,23.2,33.3,23.2,33.2c-0.2,0-0.4-0.1-0.5-0.1c0,0-0.1-0.1-0.1-0.1c0,0,0,0,0,0
		C22.8,33.1,23,33.1,23.2,33.2z"/>
	<path class="st23" d="M24.3,33.6c0.2,0,0.4,0.1,0.6,0.1c0,0,0,0,0.1,0c0,0-0.1,0-0.1,0C24.7,33.8,24.5,33.7,24.3,33.6
		C24.3,33.6,24.3,33.6,24.3,33.6z"/>
	<path class="st24" d="M13.8,23.4c0.1,0.1,0.1,0.2,0.1,0.3c0,0.2,0.1,0.3,0.1,0.5C14,23.9,13.9,23.6,13.8,23.4z"/>
	<path class="st25" d="M13.3,19.6c0-0.1,0-0.1,0-0.2c0,0.3,0.1,0.6,0,0.9C13.3,20.1,13.3,19.8,13.3,19.6z"/>
	<path class="st26" d="M37.9,29.8c-0.1,0.2-0.3,0.3-0.4,0.5c0,0,0,0,0,0C37.6,30.1,37.7,29.9,37.9,29.8z"/>
	<path class="st27" d="M38.5,29.2c-0.1,0.2-0.2,0.3-0.4,0.4C38.2,29.4,38.4,29.3,38.5,29.2z"/>
	<path class="st24" d="M13.7,22.6c0.1,0.2,0.1,0.4,0.2,0.6C13.7,23,13.7,22.8,13.7,22.6z"/>
	<path class="st3" d="M24.3,33.6C24.3,33.6,24.3,33.6,24.3,33.6c-0.2,0-0.4,0-0.5-0.1C24,33.5,24.1,33.6,24.3,33.6z"/>
	<path class="st28" d="M13.6,22c0.1,0.2,0.1,0.4,0.1,0.6C13.6,22.4,13.5,22.2,13.6,22z"/>
	<path class="st29" d="M15.9,27.6c0.2,0.1,0.3,0.2,0.3,0.4C16,27.9,16,27.8,15.9,27.6z"/>
	<path class="st3" d="M23.3,33.3c0.2,0.1,0.3,0.1,0.5,0.2C23.6,33.4,23.4,33.4,23.3,33.3z"/>
	<path class="st30" d="M15.3,26.7c0.1,0.1,0.2,0.2,0.2,0.4C15.4,27,15.3,26.8,15.3,26.7z"/>
	<path class="st31" d="M18.1,30.3C18.1,30.3,18.2,30.2,18.1,30.3c0.1,0,0.3,0.1,0.3,0.2C18.3,30.5,18.3,30.4,18.1,30.3z"/>
	<path class="st32" d="M14.1,24.1c0.1,0.1,0.1,0.3,0.2,0.4C14.2,24.4,14.1,24.3,14.1,24.1z"/>
	<path class="st28" d="M13.4,21.3c0.1,0.2,0.1,0.3,0.1,0.5C13.4,21.6,13.4,21.4,13.4,21.3z"/>
	<path class="st33" d="M35.9,31.4c0.1-0.1,0.2-0.1,0.3-0.2c0,0,0,0,0,0C36.1,31.3,36,31.4,35.9,31.4C35.9,31.5,35.9,31.4,35.9,31.4z
		"/>
	<path class="st34" d="M16.9,29C16.9,29,16.9,29,16.9,29c0.1,0,0.2,0.1,0.2,0.2C17.1,29.2,17,29.1,16.9,29z"/>
	<path class="st35" d="M15.5,27.1c0.1,0.1,0.2,0.2,0.2,0.3C15.6,27.3,15.6,27.2,15.5,27.1z"/>
	<path class="st36" d="M13.3,20.5C13.4,20.4,13.4,20.4,13.3,20.5C13.4,20.4,13.4,20.4,13.3,20.5c0,0.1,0.1,0.2,0,0.3
		C13.4,20.7,13.4,20.6,13.3,20.5z"/>
	<path class="st37" d="M15.1,26.4c0.1,0.1,0.1,0.2,0.2,0.3C15.2,26.6,15.2,26.5,15.1,26.4z"/>
	<path class="st38" d="M37.4,30.3c0,0.1-0.1,0.2-0.2,0.2C37.2,30.4,37.3,30.4,37.4,30.3z"/>
	<path class="st39" d="M35.4,26.4c-0.3,0-0.6,0-0.9,0c-0.2,0-0.2,0-0.1-0.2c0.4-0.9,0.6-1.9,0.8-2.8c0-0.2,0.1-0.3,0.2-0.3
		c0.5-0.4,1.1-0.6,1.8-0.4c0.7,0.2,1.3,1,1.3,1.7c0,0.8-0.5,1.6-1.3,1.9c-0.3,0.1-0.6,0.2-1,0.2C35.9,26.4,35.7,26.4,35.4,26.4z"/>
	<path class="st40" d="M23.9,16.9c0,0.4,0,0.8,0,1.1c0,0.2-0.1,0.3-0.2,0.3c-0.6,0-1.2,0-1.8,0c-0.5,0-0.5,0-0.5-0.5
		c0-0.7,0-1.4,0-2.1c0-0.5,0.6-1.2,1.4-1.1c0.6,0,1.1,0.6,1.1,1.2C23.9,16.1,23.9,16.5,23.9,16.9C23.9,16.9,23.9,16.9,23.9,16.9z"/>
	<path class="st41" d="M29.9,21.9c0.3,0,0.8,0.1,1.2,0.2c0.2,0.1,0.3,0.1,0.3,0.3c0,0.2-0.1,0.3-0.2,0.4c-0.7,0.5-1.4,0.7-2.3,0.9
		c-0.4,0.1-0.8,0.1-1.2,0.2c-0.4,0.1-0.7,0.2-1,0.5c0,0-0.1,0.1-0.2,0.1c-0.1,0,0-0.1-0.1-0.2c-0.1-0.6,0.2-1.1,0.7-1.5
		C28,22.2,28.8,21.9,29.9,21.9z"/>
	<path class="st42" d="M31.7,22.6c0.3,0.5,0.2,1.1-0.2,1.6c-0.6,0.7-1.3,1-2.2,1.2c-0.6,0.1-1.2,0.1-1.8-0.1
		c-0.2-0.1-0.4-0.2-0.6-0.3c-0.2-0.1-0.2-0.3,0-0.5c0.3-0.2,0.6-0.2,0.9-0.3c0.7-0.1,1.3-0.1,2-0.3C30.6,23.7,31.2,23.3,31.7,22.6z"
		/>
	<path class="st43" d="M20.9,32.2c-0.2-0.1-0.4-0.2-0.6-0.4c0,0,0,0,0,0C20.5,31.9,20.7,32,20.9,32.2z"/>
	<path class="st43" d="M20.9,32.2C20.9,32.2,20.9,32.2,20.9,32.2c0.1-0.1,0.1,0,0.2,0.1C21.1,32.3,21,32.3,20.9,32.2z"/>
	<path class="st39" d="M43.1,43c0,0.6,0,1.1-0.1,1.7c0,0.2-0.1,0.4-0.1,0.5c-0.1,0.2-0.2,0.3-0.4,0.3c-0.2,0-0.3-0.1-0.4-0.3
		c-0.1-0.2-0.2-0.5-0.2-0.8c-0.1-1.1-0.1-2.3,0-3.4c0-0.2,0.1-0.4,0.2-0.6c0.1-0.2,0.2-0.3,0.5-0.3c0.2,0,0.3,0.2,0.4,0.4
		c0.1,0.3,0.2,0.7,0.2,1C43.1,42,43.1,42.5,43.1,43C43.1,43,43.1,43,43.1,43z"/>
</g>
</svg>
