<?xml version="1.0" encoding="utf-8"?>
<!-- Generator: Adobe Illustrator 25.4.1, SVG Export Plug-In . SVG Version: 6.00 Build 0)  -->
<svg version="1.1" id="Calque_1" xmlns="http://www.w3.org/2000/svg" xmlns:xlink="http://www.w3.org/1999/xlink" x="0px" y="0px"
	 viewBox="0 0 55 50" style="enable-background:new 0 0 55 50;" xml:space="preserve">
<style type="text/css">
	.st0{fill:#0067A0;}
	.st1{fill:#F78700;}
	.st2{fill:#E7E3E3;}
	.st3{fill:#E5E3E2;}
</style>
<g>
	<path class="st0" d="M6.4,28c-0.4-0.3-0.8-0.7-1.2-1c-0.4-0.4-0.4-0.5-0.1-1c0.6-0.7,1.2-1.4,1.7-2.1c0.3-0.4,0.5-0.4,0.9-0.1
		c0.3,0.3,0.6,0.6,0.9,0.8c0.5,0.2,1,0.4,1.5,0.2c0.6-0.2,0.9-0.8,0.7-1.4c-0.4-0.6-1-0.9-1.6-1c-0.4-0.1-0.8-0.3-1.2-0.6
		C6.7,21,5.8,20,5.4,18.5c-0.9-3,1.3-6.2,4.5-6.4c2-0.1,3.6,0.7,5,2c0.1,0.1,0.2,0.2,0.2,0.3s0,0.2-0.1,0.3
		c-0.6,0.8-1.2,1.6-1.9,2.3c-0.1,0.1-0.3,0.3-0.5,0.2c-0.1-0.1-0.2-0.2-0.4-0.3c-0.2-0.1-0.3-0.2-0.5-0.3c-0.3-0.3-0.6-0.4-1-0.5
		c-0.5-0.1-1,0.1-1.2,0.5c-0.3,0.5-0.2,0.9,0.2,1.3c0.1,0.1,0.3,0.2,0.5,0.4c0.2,0.1,0.3,0.1,0.5,0.2c1.4,0.4,2.6,1.2,3.5,2.4
		c0.9,1.1,1,2.4,0.8,3.7c-0.3,2.1-1.9,3.7-4,4.2c-1.4,0.3-2.7,0.2-4-0.5C6.8,28.3,6.6,28.1,6.4,28z"/>
	<path class="st0" d="M20.2,28.7c0.4-0.5,0.9-1,1.3-1.5c0.2-0.2,0.3-0.3,0.6-0.3c1,0,2,0,2.9,0c0.2,0,0.3,0,0.4,0.2
		s-0.1,0.3-0.2,0.4s-0.2,0.3-0.3,0.4c0,0.3-0.2,0.4-0.4,0.6c-0.8,1-1.6,1.9-2.4,2.9c-0.3,0.3-0.3,0.3,0,0.7c0.2,0.2,0.4,0.3,0.4,0.6
		c1,1.1,2,2.2,3,3.3c0.2,0.2,0.3,0.4,0.5,0.6c0,0.3-0.1,0.4-0.4,0.5c-0.2,0.1-0.5,0.1-0.8,0.1c-0.6,0-1.3,0-1.9,0
		c-0.3,0-0.6-0.1-1-0.2c-0.4-0.2-0.6-0.6-0.9-1c-0.4-0.4-0.7-0.7-1-1.1c-0.4-0.1-0.5-0.4-0.8-0.6c-0.1,0.4,0,0.8,0,1.1s0,0.7,0,1
		c0,0.4-0.2,0.6-0.6,0.7c-0.8,0.1-1.6,0-2.3,0c-0.1,0-0.2-0.1-0.3-0.1c-0.3-0.1-0.4-0.3-0.4-0.6c0-3.3,0-6.5,0-9.8
		c0-0.4,0.1-0.5,0.5-0.5c0.9,0,1.7,0,2.6,0c0.2,0,0.3,0.1,0.4,0.2c0.1,0.2,0.1,0.4,0.1,0.6c0,0.8,0,1.7,0,2.5
		C19.7,29.2,19.8,28.8,20.2,28.7z"/>
	<path class="st0" d="M36.3,30.3c0.2-0.7,0.5-1.3,1-1.9c2-2.4,5.6-2.4,7.6,0c0.1,0.1,0.2,0.2,0.3,0.4c0.6,0.7,0.8,1.5,0.8,2.4
		c0,1.7,0,3.4,0,5.1c0,0.6-0.2,0.8-0.8,0.8s-1.2,0-1.9,0c-0.2,0-0.3,0-0.5-0.1c-0.3-0.1-0.3-0.3-0.3-0.6c0-1.6,0-3.2,0-4.9
		c0-0.2,0-0.3-0.1-0.5c-0.1-0.1-0.2-0.2-0.3-0.4c-0.4-0.5-0.8-0.6-1.4-0.5c-0.5,0.1-0.8,0.5-0.9,1c-0.1,0.3-0.1,0.6-0.1,0.8
		c0,1.4,0,2.8,0,4.2c0,0.2,0,0.4-0.1,0.6c-0.1,0.2-0.3,0.3-0.5,0.3c-0.7,0-1.4,0-2.2,0c-0.1,0-0.2-0.1-0.3-0.1
		c-0.2-0.1-0.3-0.3-0.3-0.5c0-0.3,0-0.7,0-1c-0.2-1.5-0.1-2.9-0.1-4.4C36.1,30.8,36,30.5,36.3,30.3z"/>
	<path class="st0" d="M26,27.8v-0.1c0-0.8,0-0.8,0.8-0.8c0.6,0,1.3,0,1.9,0c0.3,0,0.5,0.1,0.7,0.4c0.1,0.7,0,1.4,0,2.1
		c0,0.9,0,1.7,0,2.6c0,0.6,0.1,1.1,0.6,1.4c0.1,0,0.1,0.1,0.1,0.1c0.9,0.4,1.8-0.2,1.8-1.2c0-1.6,0-3.2,0-4.8c0-0.6,0.1-0.6,0.6-0.6
		c0.7,0,1.4,0,2.2,0c0.3,0,0.5,0.1,0.6,0.4c0,0.2,0,0.4,0,0.6c0,1.6,0,3.2,0,4.8c0,1.6-0.8,2.8-2.1,3.7c-1.4,0.9-2.8,1-4.4,0.6
		c-0.3-0.1-0.6-0.3-0.9-0.5c-0.9-0.7-1.6-1.6-2-2.8c0.1-0.5,0.1-0.9,0.1-1.3c0-1,0-1.9,0-2.9c0-0.4-0.1-0.7-0.1-1.1
		C25.9,28.2,25.9,28,26,27.8z"/>
	<path class="st0" d="M25,19.7c0.7-2.1,2.5-3.3,4.7-3.1c0.3,0,0.5,0.1,0.7,0.2c0.3,0.1,0.3,0,0.3-0.2c0-0.8,0-1.7,0-2.5
		c0-0.4,0.1-0.5,0.5-0.5c0.6,0,1.3,0,1.9,0c0.3,0,0.4,0.1,0.5,0.3s0.1,0.3,0.1,0.5c0,2.2,0,4.3,0,6.5s-1.4,4-3.6,4.4
		c-1.2,0.2-2.4,0.2-3.4-0.6c-0.8-0.6-1.5-1.3-1.8-2.3c-0.1-0.1-0.2-0.2-0.2-0.4c-0.1-0.7-0.1-1.4,0-2.1C24.8,19.8,24.9,19.7,25,19.7
		z"/>
	<path class="st0" d="M17.3,24.7c-0.5-0.4-1-0.8-1.4-1.4c-0.4-0.3-0.6-0.7-0.6-1.2c-0.1-0.7-0.2-1.5,0-2.2c0.6-2.4,3.1-3.9,5.5-3.1
		c0.3,0.1,0.5,0.2,0.7-0.1c0.1-0.1,0.3-0.1,0.4-0.1c0.6,0,1.1,0,1.7,0c0.2,0,0.3,0,0.4,0.2s0.1,0.5,0.1,0.8c0,2.3,0,4.5,0,6.8
		c0,0.2,0,0.3,0,0.5c0,0.4-0.2,0.6-0.6,0.6c-0.6,0-1.2,0-1.8,0c-0.1,0-0.1,0-0.2,0c-0.4-0.3-0.7-0.1-1.1,0
		C19.3,25.5,18.2,25.4,17.3,24.7z"/>
	<path class="st0" d="M38.2,17.5c0-0.7,0-1.4,0-2.1c-0.2-0.3-0.2-0.6,0-0.9c0.1-0.2,0.3-0.3,0.6-0.3c0.6,0,1.2,0,1.9,0
		c0.2,0,0.4,0,0.5,0.2s0.1,0.4,0.1,0.6c0,1.1,0,2.2,0.1,3.3c0.3-0.2,0.4-0.5,0.7-0.6c0.3-0.3,0.5-0.6,0.8-0.9
		c0.1-0.1,0.2-0.2,0.4-0.2c0.9,0,1.8,0,2.7,0c0.1,0,0.3,0,0.3,0.1c0.1,0.1,0,0.2-0.1,0.3c-0.1,0.1-0.2,0.3-0.3,0.4
		c0,0.2-0.2,0.4-0.3,0.5c-0.6,0.8-1.3,1.6-2,2.4c-0.3,0.3-0.3,0.3,0,0.7c0.2,0.2,0.4,0.4,0.5,0.7c0.8,0.9,1.7,1.9,2.5,2.8
		c0.1,0.1,0.2,0.2,0.3,0.3c0.1,0.3-0.1,0.4-0.3,0.5s-0.4,0.1-0.6,0.1c-0.6,0-1.2,0-1.9,0c-0.2,0-0.4,0-0.6-0.1
		c-0.3-0.1-0.4-0.3-0.6-0.4c-0.3-0.3-0.6-0.7-0.9-1c-0.4-0.1-0.5-0.5-0.8-0.7c0,0.4,0,0.8,0,1.2c0,0.8-0.2,0.9-1,0.9
		c-0.5,0-0.9,0-1.4,0c-0.2,0-0.4,0-0.5-0.1l0,0c-0.2,0-0.3-0.2-0.3-0.3c0-0.1,0-0.3,0-0.4c0-2.1,0-4.3,0-6.4
		C38,17.9,38,17.7,38.2,17.5z"/>
	<path class="st0" d="M34.6,16.6c0.1-0.1,0.2-0.1,0.3-0.1c0.6,0,1.3,0,1.9,0c0.3,0,0.4,0.1,0.5,0.3c0.1,0.2,0.1,0.4,0.1,0.6
		c0,2.3,0,4.7,0,7c0,0.7-0.2,1-1,1c-0.4,0-0.8,0-1.2,0c-0.2,0-0.4,0-0.5-0.1c-0.2-0.1-0.3-0.3-0.3-0.5c0-0.5,0-1,0-1.6
		c-0.1-0.1-0.1-0.3-0.1-0.5c0-1.8,0-3.6,0-5.4C34.3,17,34.3,16.7,34.6,16.6z"/>
	<path class="st1" d="M34.6,16.6c-0.2,0.2-0.1,0.4-0.1,0.6c0,2,0,4,0,5.9c-0.3,0.5-0.5,1.1-1,1.6c-1,1.1-2.2,1.6-3.6,1.5
		c-1.2-0.1-2.2-0.6-3.1-1.5c0.4,0.1,0.7,0.3,1.1,0.5c2.9,0.8,5.3-1.2,5.6-3.7c0.1-0.6,0-1.1,0-1.7c0-1.8,0-3.6,0-5.4
		c0-0.2,0-0.3,0-0.5c0.3,0.2,0.5,0.5,0.7,0.7s0.2,0.4,0.2,0.6C34.6,15.6,34.6,16.1,34.6,16.6z"/>
	<path class="st1" d="M28.1,36.4c1.1,0.6,2.2,0.8,3.4,0.6c2.2-0.4,3.8-2.1,3.9-4.3c0-1.6,0-3.3,0-4.9c0-0.1-0.1-0.3,0.1-0.4
		c0.5,0.3,0.9,0.7,0.8,1.4c0,0.6-0.1,1.1,0,1.7c-0.1,0.9-0.1,1.8-0.1,2.8c0,0.8,0,1.6,0,2.3c0-0.2,0-0.4-0.1-0.6
		c-0.4,1.1-1,1.8-1.8,2.4C32.3,38.5,29.6,38.1,28.1,36.4z"/>
	<path class="st1" d="M15.3,22.1c0.2,0.4,0.3,0.8,0.6,1.2c-0.1,0.2,0,0.4,0,0.6c0.3,2.5-1.1,4.8-3.4,5.7c-0.2,0.1-0.3,0.1-0.5,0.1
		c-0.2-0.1-0.1,0.2-0.3,0.2c-0.4,0-0.7,0-1.1,0c-1.6,0-3-0.7-4.2-1.8c0,0,0-0.1-0.1-0.1c0.7,0.4,1.5,0.7,2.3,0.9
		c2.5,0.5,5.4-0.9,6.1-3.8c0.3-1.4,0.2-2.8-0.5-4c0-0.1,0-0.1-0.1-0.2C14.6,21.2,14.9,21.7,15.3,22.1z"/>
	<path class="st1" d="M17.3,24.7c0.8,0.4,1.6,0.6,2.5,0.6c0.4,0,0.8-0.1,1.2-0.2c0.2-0.1,0.3-0.1,0.5,0.1c0.1,0.2,0.3,0.2,0.5,0.2
		c0.5,0,1.1,0,1.6,0s0.6-0.1,0.6-0.6c0-2.5,0-5,0-7.5c0-0.1,0-0.3,0-0.4l0,0c0.7,0.5,1,1.2,0.8,2c-0.1,0.3,0,0.6,0,0.9
		c-0.2,0.9-0.2,1.8,0.1,2.7c-0.1,0-0.1,0.1-0.1,0.3c0,0.9,0,1.8,0,2.6c0,0.5-0.2,0.7-0.7,0.7s-1,0-1.5,0c-0.1,0-0.2,0-0.2,0
		c-0.3-0.3-0.7-0.1-1,0C19.8,26.4,18.4,26,17.3,24.7z"/>
	<path class="st1" d="M36.5,37c0.8,0,1.5,0,2.3,0c0.7,0,0.7-0.1,0.7-0.8c0-1.5,0-3,0-4.5c0-0.7,0.2-1.3,0.9-1.6
		c0.9-0.4,1.9,0.1,2,0.9c-1.2-0.3-1.9,0.3-1.9,1.5c0,1.5,0,3,0,4.5c0,0.6-0.2,0.7-0.7,0.7c-0.6,0-1.2,0-1.8,0
		C37.2,37.9,36.8,37.5,36.5,37z"/>
	<path class="st1" d="M34.8,25.2c0.7,0,1.3,0,2,0c0.4,0,0.6-0.2,0.6-0.6c0-2.4,0-4.8,0-7.3c0-0.2,0-0.4,0-0.5
		c0.3,0.2,0.5,0.5,0.8,0.7c0,2.4,0,4.8,0,7.2c0,0.2,0,0.4,0.2,0.6c-0.1,0-0.1,0.2-0.1,0.2c-0.1,0.5-0.3,0.7-0.8,0.7
		c-0.4,0-0.8,0-1.1,0C35.6,26.2,35.2,25.8,34.8,25.2z"/>
	<path class="st1" d="M42.8,37c0.8-0.1,1.5,0,2.3,0c0.7,0,0.8-0.1,0.8-0.8c0-1.5,0-3,0-4.4c0-1.1-0.2-2.1-0.7-3
		c0.6,0.4,0.9,1,1.2,1.7c0.3,0.6,0.4,1.3,0.4,2c0,1.6,0,3.2,0,4.7c0,0.5-0.2,0.7-0.7,0.7c-0.6,0-1.2,0-1.8,0
		C43.5,37.9,43.1,37.5,42.8,37z"/>
	<path class="st0" d="M45.6,19.8c0.8-0.1,1.5-0.1,2.3-0.1c0.3,0,0.6,0,0.9,0c0.2,0,0.4,0.1,0.5,0.3c0.2,0.5,0.1,1.1,0.1,1.6
		c0,0.3-0.3,0.5-0.6,0.5c-0.9,0.1-1.8,0-2.7,0c-0.1,0-0.2,0-0.3-0.1c-0.3-0.1-0.5-0.3-0.4-0.6c0-0.4,0-0.9,0-1.3
		C45.4,19.9,45.4,19.8,45.6,19.8z"/>
	<path class="st0" d="M11.7,29.8c0-0.1,0-0.3,0.1-0.4c0.2,0,0.1,0.2,0.2,0.2c0.1,0.6,0.2,1.1,0.6,1.6c0.3,0.2,0.6,0.5,0.9,0.7
		c0.4,0.2,0.8,0.3,1.2,0.4c-0.3,0.2-0.7,0.1-0.9,0.3c-0.1,0.1-0.2,0.1-0.3,0.2c-0.6,0.2-1,0.6-1.2,1.2c-0.1,0.1-0.1,0.3-0.2,0.4
		c-0.1,0.3-0.1,0.6-0.2,1c-0.2-0.6-0.2-1.1-0.6-1.6c-0.1-0.2-0.4-0.3-0.4-0.5c-0.3-0.4-0.8-0.5-1.3-0.6c-0.2,0-0.4,0-0.6-0.2
		c0.1-0.2,0.3-0.1,0.5-0.2c1.2-0.2,1.9-1,2.1-2.1C11.7,30.1,11.7,29.9,11.7,29.8z"/>
	<path class="st1" d="M26,27.8c0.1,0.6,0,1.1,0,1.7c0-0.2,0-0.4-0.1-0.7c-1.1,1.3-2.2,2.6-3.2,3.8c-0.2-0.3-0.5-0.5-0.7-0.8
		c-0.1-0.1-0.1-0.2,0-0.3c1-1.2,2-2.5,3.1-3.7C25.3,27.8,25.7,27.8,26,27.8z"/>
	<path class="st1" d="M45.6,19.8c-0.1,0.1-0.2,0.2-0.2,0.3c-0.3,0.1-0.3,0.3-0.5,0.5c-0.3,0.3-0.6,0.6-0.8,1
		c-0.3-0.3-0.5-0.5-0.8-0.8c-0.1-0.1-0.2-0.2,0-0.3c0.9-1.1,1.7-2.1,2.6-3.2c0.3,0,0.6,0,0.9,0c0.2,0,0.3,0.1,0.4,0.3
		c0.1,0.2,0,0.3-0.1,0.4c-0.4,0.5-0.9,1-1.3,1.6C45.7,19.6,45.6,19.7,45.6,19.8z"/>
	<path class="st0" d="M35.4,15.2c-0.4-0.3-0.8-0.6-0.8-1.2c0-0.6,0.3-1.2,0.9-1.4c0.5-0.2,1.2,0,1.6,0.4c0.1,0.1,0.1,0.2,0.2,0.3
		c0.3,0.5,0.2,1.2-0.2,1.6C36.6,15.4,36,15.5,35.4,15.2z"/>
	<path class="st1" d="M16.2,37c0.8,0,1.6,0,2.4,0c0.6,0,0.7-0.1,0.7-0.7c0-0.8,0-1.5,0-2.4c0.4,0.4,0.7,0.7,1,1
		c-0.1,0.1-0.1,0.3-0.1,0.4c0,0.6,0,1.3,0,1.9c0,0.5-0.2,0.7-0.7,0.7c-0.6,0-1.3,0-1.9,0c-0.4,0-0.8-0.1-1-0.4
		C16.4,37.3,16.3,37.1,16.2,37z"/>
	<path class="st1" d="M30.2,33.5c-0.6-0.2-0.8-0.6-0.8-1.1c0-1.6,0-3.3,0-4.9c0-0.1,0-0.2,0.1-0.2c0.5,0.3,0.9,0.6,0.8,1.3
		c0,1.5,0,3,0,4.5C30.3,33.2,30.3,33.3,30.2,33.5z"/>
	<path class="st1" d="M12.6,17.3c0.2,0,0.4-0.2,0.6-0.4c0.7-0.8,1.4-1.6,1.9-2.5c0.2,0.2,0.5,0.4,0.7,0.7c0.2,0.2,0.2,0.4,0,0.7
		c-0.6,0.7-1.2,1.5-1.8,2.2c-0.2,0.2-0.4,0.2-0.6,0.1C13.1,17.8,12.9,17.5,12.6,17.3z"/>
	<path class="st1" d="M45.8,22c0.9,0,1.8,0,2.7,0c0.7,0,0.8-0.2,0.8-0.8c0-0.4,0-0.8,0-1.2c0.1,0.1,0.3,0.2,0.4,0.4
		c0.3,0.2,0.4,0.5,0.4,0.9c0,0.3,0,0.7,0,1c0,0.4-0.2,0.6-0.5,0.6c-0.9,0-1.9,0.1-2.8,0C46.3,22.8,46.1,22.4,45.8,22z"/>
	<path class="st1" d="M38.4,25.2c0.7,0,1.4,0,2.1,0c0.4,0,0.6-0.1,0.6-0.6c0-0.6,0-1.1,0-1.7c0,0,0,0,0.1-0.1c0.3,0.3,0.6,0.7,0.9,1
		c-0.1,0.4,0,0.7,0,1.1c0,0.2,0,0.3,0,0.5c0,0.5-0.2,0.7-0.7,0.7s-1,0-1.5,0s-0.8-0.1-1.1-0.5C38.6,25.5,38.5,25.4,38.4,25.2z"/>
	<path class="st1" d="M12.1,34.5c0.2-0.7,0.5-1.3,1.2-1.6c0.2-0.1,0.3-0.1,0.5-0.2c0,0.2,0.2,0.3,0.4,0.3c0.3,0.1,0.6,0.2,1,0.3
		c0.1,0,0.2,0,0.4,0.2c-1.6,0.1-2.4,1-2.6,2.6C12.6,35.5,12.5,34.9,12.1,34.5z"/>
	<path class="st1" d="M22.2,36.9c0.9,0,1.8,0,2.6,0c0.3,0,0.5,0,0.8,0s0.5-0.1,0.6-0.4c0.3,0.1,0.4,0.4,0.6,0.5
		c0.1,0.1,0.2,0.3,0.1,0.4c-0.1,0.2-0.2,0.3-0.4,0.3c-1.1,0-2.1,0-3.2,0c-0.2,0-0.3-0.1-0.4-0.2C22.6,37.4,22.4,37.2,22.2,36.9z"/>
	<path class="st1" d="M35.4,15.2c1.3,0.3,2.2-0.6,1.9-1.9c0.4,0.3,0.6,0.7,0.9,1c0,0.3,0,0.6,0,0.9c-0.1,0.1-0.1,0.2-0.2,0.3
		c-0.4,0.6-1.1,0.8-1.7,0.3C35.9,15.8,35.7,15.5,35.4,15.2z"/>
	<path class="st1" d="M43.6,25.2c0.9,0,1.8,0,2.7,0c0.3,0,0.5-0.1,0.6-0.4c0.3,0.2,0.5,0.4,0.7,0.7c0.2,0.3,0.1,0.6-0.3,0.6
		c-0.9,0-1.8,0-2.7,0c-0.2,0-0.3-0.1-0.4-0.2C44,25.7,43.8,25.5,43.6,25.2z"/>
	<path class="st1" d="M10.2,18.3c-0.7-0.2-1.1-0.9-0.9-1.6c0.3-0.7,1-0.9,1.7-0.7c0.5,0.2,0.9,0.5,1.2,0.9c-0.2,0-0.4-0.1-0.6-0.1
		C10.7,16.8,10.2,17.3,10.2,18.3z"/>
	<path class="st1" d="M42.1,17.6c-0.2,0.4-0.6,0.7-0.8,1h-0.1c0-0.4,0-0.8,0-1.2c0-1,0-2,0-3c0.3,0.2,0.5,0.5,0.7,0.7
		c0.1,0.1,0.1,0.3,0.1,0.5C42.1,16.3,42.1,16.9,42.1,17.6z"/>
	<path class="st1" d="M20.2,28.7c-0.3,0.3-0.6,0.7-0.9,1.1c0-1.3,0-2.4,0-3.6c0.2,0.2,0.5,0.5,0.7,0.7c0.1,0.1,0.1,0.3,0.2,0.5
		C20.2,27.9,20.1,28.3,20.2,28.7z"/>
	<path class="st0" d="M44.5,14.6c-0.1,0.1,0,0.2-0.2,0.3c-0.1-0.7-0.5-1.2-1.2-1.3c0.7-0.1,1.2-0.5,1.2-1.3c0.5,0.9,0.5,0.9,1.3,1.2
		c-0.2,0.1-0.3,0.1-0.4,0.2C44.9,14,44.7,14.3,44.5,14.6z"/>
	<path class="st1" d="M8.1,21.7c0.6,0.2,1.2,0.5,1.9,0.7c0.4,0.2,0.8,0.4,0.9,0.9C9.8,23,8.8,22.6,8.1,21.7z"/>
	<path class="st1" d="M44.5,14.6c0.1-0.4,0.2-0.8,0.7-0.9c0.1,0.3,0.5,0.3,0.7,0.5c-0.7,0.4-0.7,0.4-0.9,1
		C44.9,15.1,44.9,14.7,44.5,14.6z"/>
	<path class="st1" d="M13.5,32c-0.4-0.1-0.7-0.3-0.9-0.7c0.1-0.4,0.1-0.7,0.3-1.2C13,30.8,13.2,31.4,13.5,32z"/>
	<path class="st1" d="M10.9,33.3c0.2,0.1,0.3,0.3,0.4,0.5c-0.4-0.1-0.8-0.2-1.3-0.3C10.3,33.3,10.6,33.3,10.9,33.3z"/>
	<path class="st1" d="M28.8,22.2C27.9,22,27.5,20.8,28,20c0.3-0.4,0.8-0.7,1.3-0.6c0.6,0,1,0.4,1.2,0.9c0,0.1,0,0.1,0,0.2
		c-0.1,0.1-0.3,0.1-0.4,0.1c-0.7,0-1.2,0.5-1.3,1.2C28.9,21.9,29,22,28.8,22.2z"/>
	<path class="st2" d="M28.8,22.2c0-0.4,0-0.8,0.2-1.1c0.4-0.6,0.9-0.7,1.6-0.5c0.2,0.4,0,1-0.4,1.4C29.8,22.2,29.2,22.4,28.8,22.2z"
		/>
	<path class="st1" d="M19.3,22.2c-0.8-0.2-1.1-0.7-1.1-1.5c0-0.6,0.6-1.2,1.3-1.3c0.6-0.1,1.3,0.2,1.5,0.8c0,0.1,0.1,0.2,0.1,0.2
		c-0.1,0.1-0.2,0.1-0.4,0.1c-0.8,0-1.3,0.5-1.3,1.3C19.4,21.9,19.4,22.1,19.3,22.2z"/>
	<path class="st3" d="M19.3,22.2c-0.1-0.6,0-1.2,0.6-1.6c0.4-0.3,0.8-0.2,1.2-0.1c0.3,0.7-0.3,1.6-1.1,1.8
		C19.7,22.3,19.5,22.3,19.3,22.2z"/>
</g>
</svg>
